<?xml version="1.0" encoding="utf-8"?>
<!-- Generator: Adobe Illustrator 27.5.0, SVG Export Plug-In . SVG Version: 6.00 Build 0)  -->
<svg version="1.1" id="Capa_1" xmlns="http://www.w3.org/2000/svg" xmlns:xlink="http://www.w3.org/1999/xlink" x="0px" y="0px"
	 viewBox="0 0 2752 1636" style="enable-background:new 0 0 2752 1636;" xml:space="preserve">
<rect x="0.002" style="fill:#FEE9DF;" width="2751.771" height="1635.309"/>
<g>
	<g>
		<g>
			<g>
				<g>
					<g>
						<polygon style="fill:#E59375;" points="264.895,1635.309 264.318,1625.967 254.402,1567.861 220.008,1571.494 
							210.67,1626.008 208.916,1635.309 						"/>
					</g>
					<path style="fill:#E59375;" d="M349.402,1202.383c0,0-85.465,296.316-95,365.479c0,0-30.563,34-34.395,3.633
						c-7.689-60.627,16.197-376.016,32.43-400.533C268.662,1146.479,349.402,1202.383,349.402,1202.383z"/>
				</g>
				<path style="fill:#4B9EBF;" d="M240.381,1224.313c0,0-21.859,166.133-24.07,368.734c0,0,36.746,9.539,54.697,1.711
					c0,0,100.514-274.195,87.027-402.117C358.035,1192.641,265.77,1143.125,240.381,1224.313z"/>
			</g>
			<path style="fill:#3F1901;" d="M641.111,605.359c-5.063,58.926-24.852,75.25-3.402,135.348
				c19.803,55.522,68.557,94.525,77.873,155c6.621,42.951-0.971,113.803-27.838,150.043c-38.992,52.58-135.139,29.01-189.631,23.014
				c-61.965-6.82-199.316-4.156-240.273-62.867c-31.07-44.524,1.225-128.02,10.605-175.623
				c11.914-60.404,24.514-120.711,35.26-181.348c9.789-55.113,23.402-144.774,61.908-189.598
				c32.711-38.086,77.832-41.395,131.943-34.355C599.871,438.293,647.435,531.775,641.111,605.359z"/>
			<path style="fill:#E59375;" d="M332.557,838.273c-44.197-1.229-81.035,33.574-82.267,77.779
				c-1.225,44.193,22.859,158.211,56.529,129.537c66.162-56.34,99.168-90.238,100.414-134.432
				C408.465,866.953,376.754,839.504,332.557,838.273z"/>
			<path style="fill:#E59375;" d="M270.486,900.018l80.014-10.916l48.486,67.295c0,0-60.936,258.275-97.633,308.119
				c-39.1,53.092-48.5-1.627-54.762-23.055C246.592,1241.461,243.93,944.193,270.486,900.018z"/>
			<path style="fill:#F7A483;" d="M541.078,1635.309c2.838-12.482,5.76-25.363,8.76-38.701l-218.463-134.113
				c0,0-28.705,101.113-44.029,172.814H541.078z"/>
			<path style="fill:#010814;" d="M540.424,1635.309c2.359-15.715,3.443-24.658,3.443-24.658
				c39.443-177.768-222.881-164.807-222.881-164.807c-23.668,43.412-40.436,111.842-52.309,189.465H540.424z"/>
			<path style="fill:#E79675;" d="M420.859,1241.711c-10.133-1.842-51.965,19.752-51.965,19.752s-52.246,167.859-54.471,193.395
				c-2.262,25.504,173.273,157.645,369.377,82.404c0,0-90.795-236.387-96.342-294.602
				C581.916,1184.439,420.859,1241.711,420.859,1241.711z"/>
			<path style="fill:#09111C;" d="M368.895,1261.463c0,0-50.076,151.381-54.471,193.395
				c-15.641,148.715,185.605,211.08,381.687,135.848c0,0,12.719-204.463-108.652-348.045
				C587.459,1242.66,555.219,1272.063,368.895,1261.463z"/>
			<path style="fill:#09111C;" d="M695.477,1635.309c0.416-7.814,0.635-12.131,0.635-12.131l-22.092,12.131H695.477z"/>
			<path style="fill:#09111C;" d="M694.414,1635.309c12.957-123.982-54.189-143.43-54.189-143.43
				c-116.717-52.109-224.16,14.658-208.949,143.43H694.414z"/>
			<path style="fill:#F7A483;" d="M544.57,829.44H408.1c6.184-19.881,19.049-71.317-0.838-106.33l137.895-90.543
				C545.156,632.566,520.641,784.518,544.57,829.44z"/>
			<path style="fill:#E1876F;" d="M417.881,769.768c0.402-15.215-2.119-31.674-10.619-46.658l137.895-90.543
				c0,0-9.986,61.922-11.008,118.404C484.353,766.803,463.859,772.934,417.881,769.768z"/>
			<path style="fill:#F7A483;" d="M638.352,841.217c61.428,30.039,27.281,102.231,27.281,102.231l-83.02,302.174
				c0,0-77.592,31.719-213.719,15.842c-18.895-27.059-57.773-140.426-70.773-226.988c-10.734-71.285-44.035-141.527-7.754-181.277
				c13.902-15.24,119.838-30.451,120.373-32.943h127.506L638.352,841.217z"/>
			<g>
				<path style="fill:#F7A483;" d="M386.043,735.504l-8.268-20.131l-20.732-59.412c-2.922-9.457-4.74-22.492-1.932-32.01
					c3.369-11.447,5.502-29.93,0.256-50.209c-14.021-54.309,8.879-84.199,8.879-84.199c29.494-52.103,105.092-55.701,105.092-55.701
					c93.727,0.105,105.965,90.232,105.965,90.232c18.063,59.465-27.4,111.883-27.492,111.979c-5.754,6.633-5.894,16.93-8.408,24.898
					c-2.719,8.527-7.057,16.559-12.57,23.566c-12.367,15.746-28.775,31.041-45.959,40.908
					c-16.273,9.365-48.203,19.732-71.195,20.654C400.148,746.471,390.775,747.053,386.043,735.504z"/>
				<path style="fill:#3F1901;" d="M539.127,671.482c-1.692-42.705-2.627-40.035-2.627-40.035
					c-1.641-12.426-24.732,15.707-25.063-0.561c-1.465-74.496-30.297-108.527-41.141-113.715c-29.494-14.059-59.986-17-83.768-11.51
					c-37.281,8.588-33.303,58.58-33.303,58.58c-41.352-181.664,166.049-133.478,166.049-133.478
					c100.893,21.086,95.385,115.424,95.385,115.424c17.324,100.123-78.92,163.172-78.92,163.172L539.127,671.482z"/>
				<g>
					<g>
						<g>
							<g>
								<g>
									<g>
										<path style="fill:#F8A07D;" d="M531.859,657.295c3.459,2.398,7.832,3.656,13.17,3.279
											c14.465-0.93,25.809-15.105,25.289-31.592c-0.508-16.465-12.6-29.078-27.043-28.135
											c-6.867,0.459-12.992,3.877-17.514,9.103c-6.6,7.623-6.121,21.053-4.016,30.203
											C523.416,647.471,526.648,653.68,531.859,657.295z"/>
									</g>
								</g>
							</g>
						</g>
					</g>
					<g>
						<g>
							<path style="fill:#E98B6F;" d="M538.197,616.482c0.416-8.701,18.338-1.32,15.924,3.686c-1.381,2.885-4.354,5.092-6.643,7.178
								c-3.176,2.848-4.66,5.404-4.9,9.734c-0.035,0.482-0.064,2,0.465,2.314c2.338,1.461,9.33-7.355,10.865-9.227
								c3.016-3.668,3.156-9.66,1.381-13.932c-1.852-4.522-4.992-6.539-9.895-5.986c-3.93,0.43-7.916,0.9-7.451,5.775
								C537.973,616.119,538.17,616.922,538.197,616.482L538.197,616.482z"/>
						</g>
						<g>
							<path style="fill:#E98B6F;" d="M544.254,625.166c-1.922-1.719-3.578-0.117-5.375,1.309c-1.652,1.359-2.512,3.191-2.857,5.254
								c-0.781,4.549,0.135,10.535,2.908,14.332c2.232,3.053,5.832,4.812,9.635,4.514c5.273-0.412,6.592-5.148,6.563-9.621
								c0-1.178-0.049-4.018-1.246-4.699c-1.303-0.729-2.113,1.285-2.895,2.162c-1.127,1.168-2.83,1.697-4.387,1.908
								c-2.994,0.404-6.014-0.973-8-3.1c-0.354-0.379-0.697-0.834-0.873-1.316c0.141,2.92,0.338,3.553,0.557,1.938
								c0.195-0.758,0.5-1.455,0.893-2.121c1.107-2.074,3.107-3.549,4.367-5.557C544.148,629.264,545.211,626.053,544.254,625.166
								L544.254,625.166z"/>
						</g>
					</g>
				</g>
				<g>
					<path style="fill:#3C2415;" d="M445.713,597.834c-0.262,5.201,2.422,9.557,5.965,9.719c3.498,0.154,6.57-3.93,6.809-9.131
						c0.232-5.215-2.443-9.557-5.965-9.711C448.986,588.549,445.93,592.633,445.713,597.834z"/>
					<path style="fill:#3C2415;" d="M373.289,591.785c0.078,5.223,2.994,9.398,6.529,9.352c3.535-0.041,6.344-4.316,6.273-9.527
						c-0.076-5.205-2.992-9.387-6.535-9.328C376.029,582.33,373.213,586.58,373.289,591.785z"/>
					<path style="fill:#3F1901;" d="M476.338,589.271c-13.922-18.176-50.484-11.053-50.484-11.053s-2.121-0.008-1.881-6.514
						c0,0-0.135-5.732,4.479-5.416C428.451,566.289,473.268,558.666,476.338,589.271z"/>
					<path style="fill:#3F1901;" d="M353.227,564.242c6.392-12.234,40.514-0.527,40.514-0.527c4.598,0.434,3.535,6.078,3.535,6.078
						c-0.824,6.449-2.93,6.098-2.93,6.098s-33.922-13.203-39.725-5.395C353.592,566.205,353.895,566.563,353.227,564.242z"/>
					<g>
						<path style="fill:#FFFFFF;" d="M384.895,660.623l50.57,6.711c2.635,0.377,3.713,2.303,2.289,4.289
							c0,0-14.381,20.461-30.781,18.225c-16.395-2.215-24.74-25.773-24.74-25.773C381.508,662.018,382.719,660.648,384.895,660.623z
							"/>
					</g>
					<path style="fill:#E98B6F;" d="M422.184,648.703c-26.936-0.576-28.76-7.545-28.76-7.545l12.627-28.986
						C406.051,612.172,404.262,640.609,422.184,648.703z"/>
				</g>
				<path style="fill:#FFFFFF;" d="M531.31,660.346c0.24,4.887,4.416,8.658,9.317,8.408c4.894-0.244,8.656-4.42,8.394-9.31
					c-0.246-4.9-4.4-8.662-9.303-8.412C534.832,651.275,531.057,655.447,531.31,660.346z"/>
			</g>
			<g>
				<path style="fill:#F7A483;" d="M557.146,905.482c-2.752,44.119,20.326,87.453,64.457,90.168
					c44.121,2.754,158.885-17.434,131.367-52.041c-54.049-68.053-86.789-102.205-130.916-104.938
					C577.902,835.926,559.859,861.342,557.146,905.482z"/>
				<path style="fill:#F7A483;" d="M590.797,969.658l28.068-75.719l82.197-11.053c0,0,199.072,175.453,225.752,231.313
					c28.402,59.525-24.299,42.021-46.137,37.441C880.678,1151.641,617.23,1013.897,590.797,969.658z"/>
				<path style="fill:#F7A483;" d="M931.336,1152.502c0,0-99.185,139.529-191.563,219.014c0,0-39.81-3.957-27.197-25.682
					c21.457-36.859,109.721-209.535,131.412-246.543C856.205,1078.496,931.336,1152.502,931.336,1152.502z"/>
				<path style="fill:#F7A483;" d="M712.576,1345.834l-46.648,11.908l-19.965-26.004c0.246,28.807-9.119,48.539-9.119,48.539
					c-26.049,27.68-41.725,49.361-41.725,49.361c-10.217,9.416,1.154,14.641,1.154,14.641c19.119-5.686,55.26-33.834,55.26-33.834
					c-18.076,18.684-52.514,45.346-52.514,45.346c-7,9.246,4.654,12.018,4.654,12.018c27.535-0.691,59.346-41.543,59.346-41.543
					c-11.535,15.803-44.316,43.152-44.316,43.152c-1.443,8.242,3.197,7.756,3.197,7.756c21.908,2.793,52.416-36.605,52.416-36.605
					l-11.797,14.459c-17.935,18.352-1.422,20.27-1.422,20.27l10.887-8.137c32.732-25.387,45.176-57.711,45.176-57.711l22.613-37.934
					L712.576,1345.834z"/>
			</g>
			<path style="fill:#4FA6C9;" d="M935.012,1134.84c0,0,8.07,11.656-20.412,50.508c0,0-106.809,154.111-175.799,191.68
				c0,0-30.379-12.145-34.26-34.801c0,0,91.545-210.729,148.545-246.625c56.979-35.889,0,0,0,0S898.445,1062.303,935.012,1134.84"/>
			<path style="fill:#4B9EBF;" d="M286.002,851.106c0,0-41.367,10.326-41.367,102.668c0,0-32.943,318.254,24.422,333.758
				c0,0,71.5,22.711,123.514-308.299C392.57,979.232,380.732,849.662,286.002,851.106z"/>
			<path style="fill:#4FA6C9;" d="M373.289,827.668l-58.887,10.578c0,0-42.93,9.391-44.346,46.141c0,0-2.414,69.605,35.479,195.482
				C305.535,1079.869,368.191,886.721,373.289,827.668z"/>
			<path style="fill:#4FA6C9;" d="M388.318,825.361l-26.543,4.078c0,0-51.5,99.57-63.654,205.035
				c13,86.563,39.111,217.627,70.773,226.988c107.311,31.736,219.332-18.146,219.332-18.146l51.314-204.92
				c-137.836-53.662-68.174-211.211-68.174-211.211l-28.943-6.932L420.586,943.408L388.318,825.361"/>
			<path style="fill:#4FA6C9;" d="M571.367,827.186l68.174,11.279c0,0,32.676,11.574,51.865,34.979
				c0,0,272.867,203.75,242.746,277.146c0,0-8.865,24.771-37.031,17.131L632.9,1043.084
				C632.9,1043.084,485.551,975.119,571.367,827.186z"/>
			<path style="fill:#4FA6C9;" d="M333.875,893.324c0,0-53.854,74.602-63.24,113.023c-6.168,25.268,37.865,82.154,73.408,92.187
				C363.473,1104.01,363.93,898.348,333.875,893.324z"/>
			<path style="fill:#111924;" d="M333.875,893.324c0,0-53.854,74.602-63.24,113.023c-6.168,25.268,37.865,82.154,73.408,92.187
				C363.473,1104.01,363.93,898.348,333.875,893.324z"/>
			<g>
				<path style="fill:#111924;" d="M357.691,829.44c0,0-49.057,100.193-61.211,205.666c13.006,86.555,40.752,216.996,72.414,226.357
					c107.311,31.736,219.332-18.146,219.332-18.146l51.314-204.92c-137.836-53.662-68.174-211.211-68.174-211.211l-28.943-6.932
					l-128.889,184.242l-25.217-179.135L357.691,829.44z"/>
				<path style="fill:#222B35;" d="M542.438,820.254l-128.902,184.242l0,0l92.705-25.084c0,0,13.465-11.41,4.9-23.871
					l-12.752-24.883l16.978-5.043c0,0,22.295-2.637,25.992-20.803l13.922-81.479L542.438,820.254z"/>
				<path style="fill:#222B35;" d="M388.775,825.629l24.76,178.867l0,0l-50.365-46.779c0,0-20.719-16.84-1.31-25.256l23.986-7.443
					l-28.154-25.293c0,0-5.846-7.736,0-22.299l16.908-50.24L388.775,825.629z"/>
				<path style="fill:#111924;" d="M592.992,1224.313l82.111,136.08c0,0-72.984,72.025-216.596,84.807
					c0,0-100.584,2.518-162.027-53.811l51.301-167.076H592.992z"/>
			</g>
			<g>
				<polygon style="fill:#4592B1;" points="438.924,854.559 440.473,923.672 465.924,898.787 				"/>
				<path style="fill:#7AD0E2;" d="M438.924,853.014c0,0,77.211-31.613,96.359-63.096l36.084,37.268l-93.648,90.85l-38.795-63.477"
					/>
			</g>
			<path style="fill:#7AD0E2;" d="M370.197,856.518c0,0,7.494-28.941,44.184-53.402l-4.816,99.775
				C409.564,902.891,389.219,851.856,370.197,856.518z"/>
			<path style="fill:#4592B1;" d="M366.875,902.891l3.322-46.373c11.219-2.744,21.219,12.932,29.389,25.789L366.875,902.891z"/>
			<path style="fill:#3F1901;" d="M398.324,488.996c63.486,30.715,99.908,60.066,87.697,136.043
				c-11.014,68.514-14.041,105.869,26.381,164.439c37.957,54.988,42.768,87.25,15.648,149.644
				c-21.775,50.106-43.248,98.225,19.027,124.5c117.541,49.584,219.561-46.811,170.252-168.824
				c-22.121-54.705-70.895-90.26-95.908-142.648c-25.346-53.066-5.938-100.369-3.902-155.422
				c3.402-92.07-128.512-218.834-202.85-126c-6.232,7.785-11.352,17.412-15.957,26.32L398.324,488.996z"/>
		</g>
	</g>
	<g>
		<g>
			<g>
				<g>
					<path style="fill:#E59375;" d="M2452.168,907.785l25.592,5.576c0,0,69.979,301.131,43.654,372.623
						c-26.324,71.486-68.654,0.715-81.879-5.75c-13.205-6.469-130.191-337.848-130.191-337.848L2452.168,907.785z"/>
					<path style="fill:#001940;" d="M2540.357,1248.299l-46.014-349.746c-27.387-92.004-128.492-58.021-128.492-58.021
						c-75.852,28.119-63.797,87.803-63.797,87.803l103.881,359.33c0,0,19.67,54.57,91.725,47.313
						C2497.66,1334.977,2550.111,1322.441,2540.357,1248.299z"/>
				</g>
				<path style="fill:#F7A483;" d="M2402.428,1367.643l70.227-429.281c0,0,24.211-64.518-24.191-96.768l-184.479-86.715h-130.098
					l-221.781,131.078l145.365,481.686H2402.428z"/>
				<path style="fill:#00264E;" d="M2401.949,1635.309l0.479-267.666h-344.957c0,0-35.697,81.582-47.654,267.666H2401.949z"/>
				<g>
					<path style="fill:#00264E;" d="M2249.965,1635.309c-13.98-54.814-62.479-95.082-119.873-94.652
						c-56.789,0.42-104.262,40.521-118.021,94.652H2249.965z"/>
					<path style="fill:#00264E;" d="M2174.352,1635.309c-21.514-9.127-48.654-11.463-82.465,0H2174.352z"/>
				</g>
				<g>
					<path style="fill:#00264E;" d="M2395.449,1635.309c-14.027-52.941-48.787-89.416-105.322-83.635
						c-48.859,4.982-87.994,38.867-103.24,83.635H2395.449z"/>
				</g>
				<g>
					<path style="fill:#F7A483;" d="M1931.486,938.729l-25.289,6.754c0,0-39.443,302.695-9.832,372.875
						c29.586,70.193,57.41,0.584,70.311-6.492c12.902-7.074,109.098-345.158,109.098-345.158L1931.486,938.729z"/>
					<path style="fill:#001940;" d="M1999.4,1309.143l82.867-356.475c-17.1-96.414-108.881-89.629-108.881-89.629
						c-80.557,7.316-84.506,68.07-84.506,68.07l-5.332,362.568c0,0-5.324,61.979,41.381,58.68
						C1924.93,1352.357,1991.789,1341.91,1999.4,1309.143z"/>
				</g>
				<path style="fill:#F7A483;" d="M2133.232,660.061v139.066h147.041c0,0-36.146-55.127-18.07-139.066H2133.232z"/>
				<path style="fill:#E1876F;" d="M2207.83,778.15c13.246,8.529,41.416,26.684,57.5,16.057c4.316-2.851,6.311-6.598,6.973-10.777
					c-9.465-22.022-22.473-65.951-10.1-123.369h-128.971v12.615C2149.316,713.365,2169.971,753.738,2207.83,778.15z"/>
				<g>
					<path style="fill:#F8A07D;" d="M2129.711,662.006c0,0-25.027-10.865-53.367-72.805c0,0-61.514-73.25-17.908-156.408
						c0,0,25.768-70.32,150.621-50.656C2209.057,382.137,2220.281,570.619,2129.711,662.006z"/>
					<path style="fill:#F7A483;" d="M2283.479,699.615l8.324-21.795c0,0,22.992-81.127,22.992-81.137
						c2.867-10.197,3.043-23.859,1.184-34.346c-2.014-11.4-3.303-23.324-0.332-35.355c14.5-58.342-15.4-91.465-15.4-91.465
						c-32.951-55.031-114.057-56.852-114.057-56.852c-100.416,2.613-111.113,99.479-111.113,99.479
						c-17.781,64.168,32.332,119.127,32.424,119.233c4.014,4.394,1.416,25.594,2.492,31.666
						c4.711,25.879,28.986,42.281,50.578,53.711c23.719,12.535,52.457,25.953,79.238,29.035
						C2249.971,712.957,2278.703,712.123,2283.479,699.615z"/>
				</g>
				<path style="fill:#E98B6F;" d="M2263.852,577.053l-27.943,8.504c0,0,36.486,4.961,38.684-5.574c0,0-4.029-21.184-8.572-41.311
					C2266.02,538.672,2268,575.795,2263.852,577.053z"/>
				<g>
					<path style="fill:#3C2415;" d="M2219.273,534.514c0.17,5.75-2.895,10.49-6.795,10.596c-3.887,0.119-7.197-4.447-7.352-10.205
						c-0.148-5.752,2.879-10.488,6.773-10.605C2215.803,524.188,2219.119,528.771,2219.273,534.514z"/>
					<path style="fill:#3C2415;" d="M2298.252,531.307c0.395,5.756-2.471,10.598-6.379,10.848c-3.889,0.268-7.354-4.162-7.727-9.918
						c-0.379-5.754,2.48-10.605,6.373-10.867C2294.408,521.123,2297.887,525.574,2298.252,531.307z"/>
					<path style="fill:#602A05;" d="M2228.092,515.596c2.484,0.734,3.373-2.635,3.373-2.635c1.035-3.25,0.273-6.098,0.273-6.098
						c-0.865-2.416-2.795-3.301-2.795-3.301c-6.473-1.397-19.303-0.695-30.297,1.715c-6.09,1.34-16.084,5.064-17.111,10.504
						c-0.297,1.627-0.67,4.447,1.162,5.088C2182.697,520.869,2203.668,516.025,2228.092,515.596z"/>
					<path style="fill:#602A05;" d="M2317.838,513.242c-7.135-0.404-19.74-0.664-35.283,1.086c-2.393,1.031-3.676-2.191-3.695-2.191
						c-1.445-3.08-1.057-6.02-1.057-6.02c0.527-2.49,2.359-3.613,2.359-3.613c6.232-2.236,15.027-3.127,26.252-2.156
						c3.354,0.283,9.135,1.17,12.924,2.713C2319.338,503.06,2319.936,505.215,2317.838,513.242z"/>
				</g>
				<g>
					<path style="fill:#FFFFFF;" d="M2282.598,608.334c2.225,0.275,3.387,1.979,2.443,4.223c0,0-10.746,25.951-28.006,26.772
						c-17.275,0.822-30.473-23.965-30.473-23.965c-1.289-2.398-0.014-4.48,2.775-4.643
						C2229.338,610.721,2259.141,608.99,2282.598,608.334z"/>
				</g>
				<path style="fill:#95D7E3;" d="M2033.592,1355.984c0.295,14.299-21.416,163.918-12.289,165.834
					c0.049,0.018,248.232,57.207,380.59,0l0.535-154.176l70.227-429.281c0,0,24.211-64.518-24.191-96.768l-184.479-86.715
					l12.451,37.398l-26.662,75.842l-115.887-113.24l-221.781,131.078c12.387,41.053,24.711,82.154,37.092,123.233
					c22.873,75.707,45.127,151.637,68.676,227.133C2017.873,1236.322,2037.359,1318.225,2033.592,1355.984z"/>
				<polygon style="fill:#3EAEC6;" points="2233.752,781.865 2232.217,850.988 2206.754,826.092 				"/>
				<g>
					<path style="fill:#CFEAE6;" d="M2266.176,893.32c0,5.447-4.416,9.861-9.867,9.861c-5.449,0-9.865-4.414-9.865-9.861
						c0-5.438,4.416-9.854,9.865-9.854C2261.76,883.467,2266.176,887.883,2266.176,893.32z"/>
				</g>
				<g>
					<path style="fill:#CFEAE6;" d="M2266.176,1072.4c0,5.434-4.416,9.846-9.867,9.846c-5.449,0-9.865-4.412-9.865-9.846
						c0-5.465,4.416-9.865,9.865-9.865C2261.76,1062.535,2266.176,1066.936,2266.176,1072.4z"/>
				</g>
				<g>
					<path style="fill:#CFEAE6;" d="M2266.176,1251.453c0,5.461-4.416,9.865-9.867,9.865c-5.449,0-9.865-4.404-9.865-9.865
						c0-5.438,4.416-9.85,9.865-9.85C2261.76,1241.604,2266.176,1246.016,2266.176,1251.453z"/>
				</g>
				<g>
					<path style="fill:#CFEAE6;" d="M2266.176,1430.533c0,5.441-4.416,9.855-9.867,9.855c-5.449,0-9.865-4.414-9.865-9.855
						c0-5.447,4.416-9.855,9.865-9.855C2261.76,1420.678,2266.176,1425.086,2266.176,1430.533z"/>
				</g>
				
					<line style="fill:none;stroke:#74CEE2;stroke-width:5.3377;stroke-miterlimit:10;" x1="2233.752" y1="858.865" x2="2233.752" y2="1538.467"/>
				<g>
					<path style="fill:#471F08;" d="M2400.357,1535.98c0,0-126.76,59.387-386.182-1.303c-4.26-1.021-2.465-12.084-2.465-12.084
						l2.465-24.982c1.135-8,5.598-7.619,5.598-7.619c0.064,0.01,248.227,57.199,380.584,0c0,0,5.346-0.941,5.578,7.07v31.143
						C2405.936,1528.205,2405.936,1534.418,2400.357,1535.98z"/>
					<g>
						<path style="fill:none;stroke:#BCBEC0;stroke-width:8.7324;stroke-miterlimit:10;" d="M2271.592,1554.818
							c0,3.957-3.127,7.172-7,7.172h-50.494c-3.852,0-6.986-3.215-6.986-7.172v-36.355c0-3.965,3.135-7.172,6.986-7.172h50.494
							c3.873,0,7,3.207,7,7.172V1554.818z"/>
						
							<line style="fill:none;stroke:#BCBEC0;stroke-width:8.7324;stroke-miterlimit:10;" x1="2207.111" y1="1534.35" x2="2233.83" y2="1534.35"/>
					</g>
				</g>
				<path style="fill:#7AD0E2;" d="M2233.752,780.32c0,0-81.379-31.617-100.52-63.082l-24.057,45.824l85.789,82.279l38.787-63.477"
					/>
				<path style="fill:#602A05;" d="M2024.295,505.022c32.797,98.897,81.438,134.478,81.438,134.478s-13.381-75.268,26.408-64.969
					l6.865-0.377c0,0-13.689-44.119,14.67-65.896c-13.443-17.293-2.529-51.818,0.197-56.75
					c13.746-24.85,53.443-14.258,76.662-20.832c17.965-5.094,62.611-12.668,72.9,9.039c77.951-2.254,38.584-96.732,38.584-96.732
					c-2.055,27.957-25.273,34.272-25.273,34.272c24.719-29.807-8.443-84.131-8.443-84.131
					c-33.711,27.033-122.227,32.557-122.227,32.557c-63.654-2.006-79.408,38.779-79.408,38.779S1988.254,387.758,2024.295,505.022z"
					/>
				<g>
					<g>
						<g>
							<g>
								<g>
									<g>
										<path style="fill:#F7A483;" d="M2122.549,606.834c-3.557,3.008-8.219,4.877-14.133,5.057
											c-16.008,0.5-29.98-13.846-31.213-32.043c-1.203-18.164,10.748-33.313,26.732-33.83c7.586-0.232,14.719,2.865,20.24,8.137
											c8.049,7.684,8.986,22.473,7.654,32.781C2130.746,595.166,2127.879,602.32,2122.549,606.834z"/>
									</g>
								</g>
							</g>
						</g>
					</g>
					<g>
						<g>
							<path style="fill:#E98B6F;" d="M2111.184,562.666c-1.381-9.512-20.262,0.514-17.113,5.752
								c1.852,3.037,5.324,5.131,8.098,7.178c3.789,2.826,5.684,5.449,6.424,10.172c0.098,0.545,0.273,2.205-0.268,2.627
								c-2.416,1.848-11.029-7.117-12.93-8.982c-3.711-3.707-4.508-10.31-3.043-15.18c1.584-5.18,4.824-7.746,10.297-7.654
								c4.338,0.031,8.773,0.141,8.773,5.545C2111.416,562.242,2111.254,563.154,2111.184,562.666L2111.184,562.666z"/>
						</g>
						<g>
							<path style="fill:#E98B6F;" d="M2105.479,572.865c1.908-2.107,3.9-0.531,6.035,0.867c1.979,1.293,3.141,3.232,3.725,5.475
								c1.338,4.906,0.973,11.582-1.682,16.051c-2.121,3.615-5.889,5.928-10.1,6.01c-5.83,0.088-7.803-4.965-8.268-9.887
								c-0.119-1.301-0.365-4.43,0.887-5.297c1.354-0.926,2.445,1.17,3.416,2.049c1.346,1.18,3.281,1.568,5.008,1.644
								c3.338,0.139,6.514-1.703,8.492-4.264c0.338-0.465,0.635-1.006,0.816-1.553c0.135,3.233,0,3.965-0.43,2.205
								c-0.303-0.824-0.695-1.553-1.211-2.219c-1.43-2.188-3.795-3.613-5.373-5.645
								C2106.014,577.346,2104.514,573.943,2105.479,572.865L2105.479,572.865z"/>
						</g>
					</g>
				</g>
				<polygon style="fill:#001940;" points="1966.881,1635.309 2183.781,1635.309 2195.676,1123.186 2097.035,776.662 
					1912.105,885.957 2008.014,1315.031 				"/>
				<path style="fill:#002952;" d="M2097.035,776.662l98.641,346.523l-0.422,16.451l-124.24-127.17c0,0-13.049-22.074,4.619-35.127
					l29.359-28.08l-20.936-15.01c0,0-29.354-14.24-25.789-40.93l8.408-100.342L2097.035,776.662z"/>
				<path style="fill:#001940;" d="M2458.576,1635.309l-16.809-353.33l36.943-366.977c13.07-66.23-50.859-83.105-50.859-83.105
					l-112.346-52.809l-15.725,334.75l38.936,521.471H2458.576z"/>
				<path style="fill:#7AD0E2;" d="M2302.484,783.82c0,0-7.5-28.941-44.182-53.387l4.809,99.773
					C2263.111,830.207,2283.465,779.162,2302.484,783.82z"/>
				<path style="fill:#3EAEC6;" d="M2305.803,830.207l-3.318-46.387c-11.211-2.746-21.225,12.951-29.393,25.807L2305.803,830.207z"
					/>
				<g>
					<polygon style="fill:#004788;" points="2225.76,806.852 2222.746,801.246 2202.295,832.647 2219.865,838.922 					"/>
					<path style="fill:#004788;" d="M2273.092,809.627l5.746-8.785c0,0,21.865,18.361-1.1,38.08
						C2277.738,838.922,2277.746,822.662,2273.092,809.627z"/>
					<path style="fill:#0059A5;" d="M2225.76,806.852c0,0,17.332,15.42,47.332,2.775c6.563,8.344,6.549,18.967,4.646,29.295
						l-15.535,32.06h-21.711l-20.627-32.06C2219.865,838.922,2217.738,831.844,2225.76,806.852z"/>
					<polygon style="fill:#004788;" points="2240.492,870.982 2222.943,1329.654 2259.57,1400.896 2289.449,1330.02 
						2262.203,870.982 					"/>
				</g>
				<path style="fill:#002952;" d="M2315.506,779.088l28.959,13.631l20.922,96.605c0,0,10.479,25.018-4.697,31.555l-27.289,15.924
					l38.473,24.348c0,0,20.252,12.684,7.781,31.373l-77.17,150.67l-2.43-25.758L2315.506,779.088z"/>
				<path style="fill:#F7A483;" d="M2119.203,1161.658l-45.105-35.613c0,0-67.895-9.961-101.795-5.684
					c0,0-11.219,15.592,74.416,17.973c0,0-60.057,19.189-79.332,33.471c0,0-3.098,17.754,51.816-8.041l25.008-1.842l-58.119,29.006
					c0,0,2.273,11.047,55.189-3.33l53.049,5.83L2119.203,1161.658z"/>
				<path style="fill:#00153B;" d="M2408,1168.277l-290.635-34.758c-14.521,17.744-28.527,49.969-22.295,83.691l371.232,117.748
					c0,0,98.076,17.398,72.211-100.713C2538.514,1234.246,2497.09,1174.02,2408,1168.277z"/>
				<path style="fill:#F7A483;" d="M2408,1168.277c0,0-52.219,28.137-71.803,30.373l-30.395-52.426l41.514-26.926l28.479-6.557
					c0,0,46.803-12.082,59.148,52.168L2408,1168.277z"/>
				<g>
					<path style="fill:#002952;" d="M1888.408,1269.971c-17.557,106.184,59.67,79.363,59.67,79.363l393.809-141.732
						c-11.105-61.014-36.084-70.561-36.084-70.561l-336.795,64.264C1969.008,1201.305,1905.627,1221.221,1888.408,1269.971z"/>
				</g>
			</g>
		</g>
	</g>
	<g>
		<path style="fill:#E59375;" d="M1765.973,1635.309h271.738c-11.881-77.623-28.654-146.053-52.324-189.465
			c0,0-262.303-12.961-222.852,164.807C1762.535,1610.65,1763.613,1619.594,1765.973,1635.309z"/>
		<path style="fill:#5C1B1B;" d="M1961.627,646.606c5.309,66.021,17.859,130.855,54.027,188.023
			c10.029,15.859,20.246,32.723,34.191,45.539c-53.959,11.459-195.994,11.06-217.656-69.594
			c-14.154-52.754-17.238-107.951-15.357-162.32c1.695-49.158,2.809-104.082,23.66-149.512
			c18.994-41.322,85.986-40.781,110.873-2.93c12.086,18.371,5.324,40.959,5.986,61.779
			C1958.311,587.119,1959.24,616.982,1961.627,646.606z"/>
		<path style="fill:#E59375;" d="M1973.83,838.273c44.191-1.229,68.443,38.068,82.246,77.779
			c14.529,41.756-22.838,158.211-56.498,129.537c-66.162-56.34-99.178-90.238-100.424-134.432
			C1897.93,866.953,1929.633,839.504,1973.83,838.273z"/>
		<path style="fill:#E79675;" d="M1885.527,1241.711c10.143-1.842,51.965,19.752,51.965,19.752s52.232,167.859,54.473,193.395
			c2.254,25.504-173.289,157.645-369.373,82.404c0,0,90.775-236.387,96.338-294.602
			C1724.473,1184.439,1885.527,1241.711,1885.527,1241.711z"/>
		<path style="fill:#09111C;" d="M1937.492,1261.463c0,0,50.057,151.381,54.473,193.395
			c15.633,148.715-185.605,211.08-381.697,135.848c0,0-12.725-204.463,108.662-348.045
			C1718.93,1242.66,1751.176,1272.063,1937.492,1261.463z"/>
		<path style="fill:#F7A483;" d="M1632.367,1635.309l-22.1-12.131c0,0,0.227,4.316,0.635,12.131H1632.367z"/>
		<path style="fill:#F7A483;" d="M1875.113,1635.309c15.211-128.771-92.246-195.539-208.943-143.43c0,0-67.176,19.447-54.197,143.43
			H1875.113z"/>
		<path style="fill:#F7A483;" d="M1761.803,829.44h136.492c-6.211-19.881-19.063-71.317,0.838-106.33l-137.9-90.543
			C1761.232,632.566,1785.754,784.518,1761.803,829.44z"/>
		<path style="fill:#E1876F;" d="M1888.508,769.768c-0.402-15.215,2.105-31.674,10.625-46.658l-137.9-90.543
			c0,0,9.986,61.922,11.008,118.404C1822.027,766.803,1842.521,772.934,1888.508,769.768z"/>
		<path style="fill:#F7A483;" d="M1670.324,842.299c-63.873,30.549-29.578,101.148-29.578,101.148l83.035,302.174
			c0,0,77.57,31.719,213.711,15.842c18.902-27.059,57.762-140.426,70.781-226.988c10.719-71.285,44.021-141.527,7.748-181.277
			c-13.908-15.24-119.832-30.451-120.381-32.943l-125.063-0.518L1670.324,842.299z"/>
		<g>
			<path style="fill:#F7A483;" d="M1920.346,735.504l8.273-20.131l20.711-59.412c2.93-9.457,4.754-22.492,1.945-32.01
				c-3.375-11.447-5.508-29.93-0.268-50.209c14.02-54.309-8.875-84.199-8.875-84.199c-29.479-52.103-105.09-55.701-105.09-55.701
				c-93.727,0.105-105.943,90.232-105.943,90.232c-18.1,59.465,27.387,111.883,27.479,111.979c5.76,6.633,5.887,16.93,8.414,24.898
				c2.713,8.527,7.043,16.559,12.543,23.566c12.387,15.746,28.803,31.041,45.965,40.908c16.275,9.365,48.211,19.732,71.197,20.654
				C1906.24,746.471,1915.613,747.053,1920.346,735.504z"/>
			<path style="fill:#5C1B1B;" d="M1767.262,671.482c1.689-42.705,2.633-40.035,2.633-40.035
				c1.635-12.426,24.725,15.707,25.057-0.561c1.451-74.496,30.281-108.527,41.141-113.715c29.479-14.059,59.986-17,83.754-11.51
				c37.295,8.588,33.303,58.58,33.303,58.58c41.357-181.664-166.043-133.478-166.043-133.478
				c-100.879,21.086-95.395,115.424-95.395,115.424c-17.324,100.123,78.924,163.172,78.924,163.172L1767.262,671.482z"/>
			<g>
				<g>
					<g>
						<g>
							<g>
								<g>
									<path style="fill:#F8A07D;" d="M1774.529,657.295c-3.465,2.398-7.832,3.656-13.17,3.279
										c-14.465-0.93-25.803-15.105-25.303-31.592c0.508-16.465,12.613-29.078,27.063-28.135
										c6.867,0.459,12.994,3.877,17.516,9.103c6.584,7.623,6.119,21.053,4.006,30.203
										C1782.965,647.471,1779.732,653.68,1774.529,657.295z"/>
								</g>
							</g>
						</g>
					</g>
				</g>
				<g>
					<g>
						<path style="fill:#E98B6F;" d="M1768.189,616.482c-0.408-8.701-18.338-1.32-15.943,3.686c1.402,2.885,4.367,5.092,6.67,7.178
							c3.162,2.848,4.662,5.404,4.9,9.734c0.035,0.482,0.064,2-0.471,2.314c-2.338,1.461-9.338-7.355-10.859-9.227
							c-3.029-3.668-3.162-9.66-1.402-13.932c1.854-4.522,5-6.539,9.908-5.986c3.938,0.43,7.924,0.9,7.445,5.775
							C1768.416,616.119,1768.205,616.922,1768.189,616.482L1768.189,616.482z"/>
					</g>
					<g>
						<path style="fill:#E98B6F;" d="M1762.119,625.166c1.924-1.719,3.592-0.117,5.367,1.309c1.676,1.359,2.543,3.191,2.887,5.254
							c0.775,4.549-0.141,10.535-2.908,14.332c-2.246,3.053-5.846,4.812-9.641,4.514c-5.275-0.412-6.592-5.148-6.57-9.621
							c0-1.178,0.063-4.018,1.24-4.699c1.322-0.729,2.111,1.285,2.914,2.162c1.113,1.168,2.824,1.697,4.381,1.908
							c2.979,0.404,6-0.973,8.008-3.1c0.344-0.379,0.682-0.834,0.865-1.316c-0.154,2.92-0.338,3.553-0.557,1.938
							c-0.189-0.758-0.506-1.455-0.895-2.121c-1.111-2.074-3.098-3.549-4.373-5.557
							C1762.24,629.264,1761.162,626.053,1762.119,625.166L1762.119,625.166z"/>
					</g>
				</g>
			</g>
			<g>
				<path style="fill:#3C2415;" d="M1860.689,597.834c0.248,5.201-2.43,9.557-5.971,9.719c-3.521,0.154-6.578-3.93-6.816-9.131
					c-0.232-5.215,2.436-9.557,5.965-9.711C1857.408,588.549,1860.443,592.633,1860.689,597.834z"/>
				<path style="fill:#3C2415;" d="M1933.092,591.785c-0.07,5.223-2.986,9.398-6.529,9.352c-3.541-0.041-6.344-4.316-6.268-9.527
					c0.07-5.205,2.986-9.387,6.529-9.328C1930.365,582.33,1933.168,586.58,1933.092,591.785z"/>
				<path style="fill:#5C1B1B;" d="M1830.049,589.271c13.924-18.176,50.479-11.053,50.479-11.053s2.135-0.008,1.889-6.514
					c0,0,0.133-5.732-4.494-5.416C1877.922,566.289,1833.119,558.666,1830.049,589.271z"/>
				<path style="fill:#5C1B1B;" d="M1951.873,571.242c0.078-20.111-38.689-9.4-38.689-9.4c-4.605-0.053-4.156,5.668-4.156,5.668
					c0.143,6.504,2.275,6.381,2.275,6.381s35.119-9.553,40.057-1.168C1952.846,568.56,1950.973,573.475,1951.873,571.242z"/>
				<path style="fill:#E98B6F;" d="M1884.205,648.703c26.928-0.576,28.76-7.545,28.76-7.545l-12.627-28.986
					C1900.338,612.172,1902.127,640.609,1884.205,648.703z"/>
				<g>
					<path style="fill:#9F4541;" d="M1872.184,664.004l51.557-3.355c2.717-0.139,4.16,1.822,3.182,4.387
						c0,0-10.021,26.348-26.732,27.391c-16.732,1.021-29.922-23.916-29.922-23.916
						C1869.119,666.338,1870.049,664.514,1872.184,664.004z"/>
					<path style="fill:#D45F5A;" d="M1918.824,679.703c-4.549,6.258-10.867,12.232-18.635,12.723
						c-7.838,0.478-14.859-4.725-20.141-10.408C1889.359,670.4,1907.5,669.566,1918.824,679.703z"/>
					<path style="fill:#FFFFFF;" d="M1871.684,664.242c0.168-0.074,0.309-0.182,0.5-0.238l51.557-3.355
						c0.535-0.018,0.979,0.088,1.408,0.199c1.541,2.236,0.057,6.377-4.016,9.135c-7.809,2.021-25.746,5.559-44.746,2.842
						C1871.684,668.768,1869.775,665.434,1871.684,664.242z"/>
				</g>
			</g>
			<path style="fill:#FFFFFF;" d="M1775.078,660.346c-0.254,4.887-4.424,8.658-9.316,8.408c-4.902-0.244-8.648-4.42-8.402-9.31
				c0.246-4.9,4.402-8.662,9.295-8.412C1771.557,651.275,1775.324,655.447,1775.078,660.346z"/>
		</g>
		<path style="fill:#9698BC;" d="M2008.273,845.014c0,0,33.5,0,52.486,84.83c0,0,92.922,282.123,33.324,298.44
			c0,0-88.986-17.541-172.738-242.203C1921.346,986.08,1913.684,850.387,2008.273,845.014z"/>
		<path style="fill:#9698BC;" d="M1933.092,827.668l58.895,10.578c0,0,42.922,9.391,44.352,46.141c0,0,2.4,69.605-35.486,195.482
			C2000.852,1079.869,1938.189,886.721,1933.092,827.668z"/>
		<path style="fill:#9698BC;" d="M1918.057,825.361l26.549,4.078c0,0,51.5,99.57,63.668,205.035
			c-13.02,86.563-39.119,217.627-70.781,226.988c-107.316,31.736-219.352-18.146-219.352-18.146l-51.309-204.92
			c137.844-53.662,68.189-211.211,68.189-211.211l28.951-6.932l121.816,123.154L1918.057,825.361"/>
		<path style="fill:#4FA6C9;" d="M1972.508,893.324c0,0,53.857,74.602,63.238,113.023c6.176,25.268-37.859,82.154-73.416,92.187
			C1942.916,1104.01,1942.451,898.348,1972.508,893.324z"/>
		<path style="fill:#09111C;" d="M1972.508,893.324c0,0,53.857,74.602,63.238,113.023c6.176,25.268-37.859,82.154-73.416,92.187
			C1942.916,1104.01,1942.451,898.348,1972.508,893.324z"/>
		<g>
			<path style="fill:#09111C;" d="M1948.684,829.44c0,0,49.07,100.193,61.232,205.666c-13.029,86.555-40.762,216.996-72.424,226.357
				c-107.316,31.736-219.352-18.146-219.352-18.146l-51.309-204.92c137.844-53.662,68.189-211.211,68.189-211.211l28.951-6.932
				l128.879,184.242l25.205-179.135L1948.684,829.44z"/>
			<path style="fill:#222B35;" d="M1763.957,820.254l128.895,184.242l0,0l-92.703-25.084c0,0-13.465-11.41-4.916-23.871
				l12.76-24.883L1791,925.615c0,0-22.295-2.637-25.986-20.803l-13.908-81.479L1763.957,820.254z"/>
			<path style="fill:#222B35;" d="M1917.605,825.629l-24.754,178.867l0,0l50.359-46.779c0,0,20.719-16.84,1.316-25.256
				l-23.984-7.443l28.141-25.293c0,0,5.859-7.736,0-22.299l-16.902-50.24L1917.605,825.629z"/>
		</g>
		<g>
			<polygon style="fill:#7081AB;" points="1867.457,854.559 1865.916,923.672 1840.465,898.787 			"/>
			<path style="fill:#CDC5DA;" d="M1867.457,853.014c0,0-77.197-31.613-96.352-63.096l-36.084,37.268l93.654,90.85l38.781-63.477"/>
		</g>
		<path style="fill:#CDC5DA;" d="M1936.176,856.518c0,0-7.479-28.941-44.168-53.402l4.795,99.775
			C1896.803,902.891,1917.162,851.856,1936.176,856.518z"/>
		<path style="fill:#7081AB;" d="M1939.514,902.891l-3.338-46.373c-11.203-2.744-21.219,12.932-29.373,25.789L1939.514,902.891z"/>
		<path style="fill:#09111C;" d="M2043.684,1635.309c-14.6-81.582-33.824-156.275-58.959-202.641
			c0,0-356.646-32.996-373.281,100.313l-4.338,102.328H2043.684z"/>
		<path style="fill:#9698BC;" d="M1642.346,863.172c0,0-14.324,14.939-25.867,57.764c0,0-56.506,206.561-14.922,311.531
			c0,0,13.592,21.316,48.57,30.799l111.105-267.281c0,0,47.381-111.91-27.873-169.781l-63.035,16.096
			C1670.324,842.299,1652.035,849.238,1642.346,863.172z"/>
		<path style="fill:#F7A483;" d="M1740.141,1086.449l-39.689-31.338c0,0-59.711-8.756-89.535-4.979c0,0-9.873,13.701,65.465,15.803
			c0,0-52.838,16.867-69.795,29.434c0,0-2.719,15.627,45.598-7.078l21.979-1.615l-51.105,25.518c0,0,1.986,9.725,48.527-2.92
			l46.67,5.117L1740.141,1086.449z"/>
		<path style="fill:#9698BC;" d="M1994.154,1092.273l-255.633-30.574c-12.789,15.609-25.105,43.943-19.619,73.621l326.549,103.566
			c0,0,86.268,15.299,63.514-88.592C2108.965,1150.295,2072.527,1097.32,1994.154,1092.273z"/>
		<path style="fill:#F7A483;" d="M1994.154,1092.273c0,0-45.914,24.76-63.162,26.723l-26.725-46.123l36.521-23.68l25.041-5.768
			c0,0,41.176-10.631,52.021,45.887L1994.154,1092.273z"/>
		<g>
			<path style="fill:#A1A3C1;" d="M1654.994,1264.678c0,0-70.029,6.406-52.473-69.813c15.148-42.885,70.887-60.395,70.887-60.395
				l230.859-69.68c0,0,21.965,8.399,31.732,62.078C1936,1126.869,1734.113,1266.717,1654.994,1264.678z"/>
		</g>
		<path style="fill:#5C1B1B;" d="M1797.74,644.566c-8.508,65.697-9.684,131.711,13.824,195.15
			c6.514,17.596,13.006,36.215,23.992,51.648c-55.154,0-194.021-29.869-198.465-113.273c-2.9-54.529,5.543-109.174,18.67-161.969
			c11.865-47.74,24.352-101.232,54.189-141.346c27.148-36.484,92.563-22.041,109.063,20.162c8.014,20.477-3.303,41.158-6.965,61.67
			C1806.846,585.685,1801.557,615.098,1797.74,644.566z"/>
	</g>
	<g>
		<g>
			<g>
				<g>
					<path style="fill:#E59375;" d="M1703.416,1635.309c2.479-106.803-9.316-335.902-22.373-357.049
						c-15.424-25.014-97.922,28.277-97.922,28.277s56.682,223.387,76.76,328.771H1703.416z"/>
				</g>
				<g>
					<path style="fill:#E59375;" d="M1644.684,946.379l24.887,8.121c0,0,39.43,306.619,6.078,375.107
						c-33.367,68.494-71.76-0.334-84.275-8.092c-12.492-7.75-92.281-355.027-92.281-355.027L1644.684,946.379z"/>
					<path style="fill:#121D28;" d="M1698.268,1294.01l-15.916-384.119c-18.027-94.299-114.57-66.219-114.57-66.219
						c-78.281,20.369-74.52,108.113-74.52,108.113l67.316,367.924c0,0,14.098,56.262,86.535,56.262
						C1647.113,1375.971,1700.549,1368.77,1698.268,1294.01z"/>
				</g>
				<path style="fill:#121D28;" d="M1629.908,1635.309h84.057c-0.365-98.455-3.676-292.609-23.189-369.33
					c0,0-133.141,2.781-123.557,66.664C1567.219,1332.643,1592.17,1500.41,1629.908,1635.309z"/>
			</g>
			<path style="fill:#F7A483;" d="M1597.473,1374.273l70.238-429.264c0,0,24.205-64.527-24.203-96.789l-184.465-86.697h-130.105
				l-221.781,131.068l145.373,481.682H1597.473z"/>
			<path style="fill:#00264E;" d="M1597.008,1635.309l0.465-261.035h-344.943c0,0-34.852,79.623-47.219,261.035H1597.008z"/>
			<g>
				<path style="fill:#101B26;" d="M1443.141,1635.309c-16.07-51.395-62.943-88.42-118.006-88.004
					c-54.416,0.4-100.281,37.275-116.113,88.004H1443.141z"/>
				<path style="fill:#101B26;" d="M1345.705,1635.309c-9.451-1.391-19.74-1.494-30.895,0H1345.705z"/>
			</g>
			<g>
				<path style="fill:#101B26;" d="M1588.613,1635.309c-15.119-49.303-49.289-82.525-103.438-76.996
					c-46.408,4.729-84.063,35.545-100.787,76.996H1588.613z"/>
			</g>
			<g>
				<path style="fill:#F7A483;" d="M1120.297,1635.309c-2.527-56.99-2.697-117.342,15.443-299.281c0,0-79.9-37.031-97.127,3.049
					c-8.049,18.768,7.254,187.971,25.07,296.232H1120.297z"/>
				<path style="fill:#F7A483;" d="M1192.029,900.475c-85.633-19.496-114.873,59.641-114.873,59.641s-43,263.43-42.473,376.307
					c0.354,76.172,93.303,14.83,99.41,1.443c13.449-29.549,111.146-346.869,111.146-346.869S1250.318,916.465,1192.029,900.475z"/>
				<path style="fill:#1A2530;" d="M1148.564,1342.279l111.049-360.01c-2.492-89.484-90.07-102.838-90.07-102.838
					c-82.352-7.879-100.387,62.977-100.387,62.977l-39.838,360.404c0,0-13.508,81.01,33.295,82.176
					C1062.613,1384.988,1141.148,1393.506,1148.564,1342.279z"/>
				<path style="fill:#1A2530;" d="M1139.051,1635.309c6.33-106.1,16.254-314.873,16.254-314.873
					c-37.775-65.764-125.986-17.623-125.986-17.623c-15.732,66.129,10.563,238.408,27.084,332.496H1139.051z"/>
			</g>
			<path style="fill:#F7A483;" d="M1328.275,666.697v139.074h147.07c0,0-36.176-55.127-18.084-139.074H1328.275z"/>
			<path style="fill:#E1876F;" d="M1402.881,784.799c13.262,8.525,41.422,26.68,57.5,16.053c4.316-2.865,6.324-6.615,6.973-10.795
				c-9.459-22.021-22.459-65.941-10.092-123.359h-128.986v12.613C1344.381,720.018,1365.016,760.391,1402.881,784.799z"/>
			<g>
				<path style="fill:#F8A07D;" d="M1324.775,668.641c0,0-25.027-10.869-53.359-72.813c0,0-61.527-73.232-17.922-156.391
					c0,0,25.768-70.328,150.619-50.645C1404.113,388.793,1415.338,577.258,1324.775,668.641z"/>
				<path style="fill:#F7A483;" d="M1478.529,706.26l8.338-21.789c0,0,22.979-81.143,22.979-81.158
					c2.881-10.197,3.035-23.838,1.189-34.33c-2.014-11.416-3.309-23.332-0.33-35.352c14.492-58.354-15.408-91.473-15.408-91.473
					c-32.951-55.027-114.049-56.861-114.049-56.861c-100.416,2.607-111.105,99.475-111.105,99.475
					c-17.783,64.189,32.322,119.133,32.43,119.26c4,4.367,1.393,25.57,2.484,31.645c4.697,25.891,28.986,42.293,50.578,53.715
					c23.719,12.535,52.451,25.951,79.238,29.035C1445.029,719.606,1473.762,718.754,1478.529,706.26z"/>
			</g>
			<path style="fill:#E98B6F;" d="M1458.916,583.705l-27.957,8.48c0,0,36.5,4.965,38.689-5.563c0,0-4.027-21.197-8.578-41.316
				C1461.07,545.307,1463.043,582.426,1458.916,583.705z"/>
			<g>
				<path style="fill:#3C2415;" d="M1414.324,541.043c0.268,5.75-2.719,10.531-6.619,10.697c-3.887,0.182-7.275-4.324-7.514-10.082
					c-0.262-5.729,2.711-10.535,6.598-10.715C1410.684,530.764,1414.086,535.299,1414.324,541.043z"/>
				<path style="fill:#3C2415;" d="M1493.324,538.08c0.289,5.75-2.676,10.543-6.576,10.73c-3.895,0.186-7.283-4.307-7.557-10.068
					c-0.275-5.746,2.668-10.563,6.57-10.742C1489.656,527.82,1493.057,532.328,1493.324,538.08z"/>
				<path style="fill:#D48A50;" d="M1423.143,522.246c2.506,0.715,3.373-2.658,3.373-2.658c1.041-3.229,0.268-6.098,0.268-6.098
					c-0.854-2.416-2.768-3.275-2.768-3.275c-6.494-1.402-19.311-0.715-30.324,1.697c-6.078,1.33-16.064,5.074-17.1,10.504
					c-0.309,1.623-0.668,4.447,1.156,5.088C1377.748,527.504,1398.727,522.658,1423.143,522.246z"/>
				<path style="fill:#D48A50;" d="M1513.6,516.986c-7.148-0.412-26.008,2.588-41.557,4.342c-2.395,1.01-3.67-2.191-3.689-2.191
					c-1.445-3.08-1.057-6.027-1.057-6.027c0.527-2.486,2.352-3.609,2.352-3.609c6.232-2.232,23.225-5.902,34.443-4.92
					c3.352,0.293,8.74,1.945,10.297,5.131C1514.389,509.711,1515.684,508.94,1513.6,516.986z"/>
			</g>
			<path style="fill:#95D7E3;" d="M1228.656,1362.621c0.303,14.311-21.416,163.92-12.297,165.846c0.064,0,248.219,57.189,380.584,0
				l0.529-154.193l70.238-429.264c0,0,24.205-64.527-24.203-96.789l-184.465-86.697l12.443,37.391l-26.668,75.857l-115.881-113.248
				l-221.781,131.068c12.395,41.07,24.711,82.158,37.119,123.229c22.859,75.703,45.105,151.643,68.662,227.154
				C1212.938,1242.975,1232.424,1324.869,1228.656,1362.621z"/>
			<polygon style="fill:#3EAEC6;" points="1428.811,788.51 1427.268,857.619 1401.824,832.742 			"/>
			<g>
				<path style="fill:#CFEAE6;" d="M1461.227,899.965c0,5.432-4.416,9.855-9.867,9.855c-5.436,0-9.859-4.424-9.859-9.855
					c0-5.447,4.424-9.867,9.859-9.867C1456.811,890.098,1461.227,894.518,1461.227,899.965z"/>
			</g>
			<g>
				<path style="fill:#CFEAE6;" d="M1461.227,1079.031c0,5.447-4.416,9.852-9.867,9.852c-5.436,0-9.859-4.404-9.859-9.852
					c0-5.451,4.424-9.859,9.859-9.859C1456.811,1069.172,1461.227,1073.58,1461.227,1079.031z"/>
			</g>
			<g>
				<path style="fill:#CFEAE6;" d="M1461.227,1258.104c0,5.447-4.416,9.863-9.867,9.863c-5.436,0-9.859-4.416-9.859-9.863
					c0-5.449,4.424-9.869,9.859-9.869C1456.811,1248.234,1461.227,1252.654,1461.227,1258.104z"/>
			</g>
			<g>
				<path style="fill:#CFEAE6;" d="M1461.227,1437.172c0,5.445-4.416,9.865-9.867,9.865c-5.436,0-9.859-4.42-9.859-9.865
					c0-5.434,4.424-9.867,9.859-9.867C1456.811,1427.305,1461.227,1431.738,1461.227,1437.172z"/>
			</g>
			
				<line style="fill:none;stroke:#74CEE2;stroke-width:5.3377;stroke-miterlimit:10;" x1="1428.811" y1="865.492" x2="1428.811" y2="1545.1"/>
			<g>
				<path style="fill:#471F08;" d="M1595.416,1542.607c0,0-126.76,59.395-386.182-1.295c-4.254-1.008-2.465-12.086-2.465-12.086
					l2.465-24.971c1.141-7.994,5.605-7.613,5.605-7.613c0.055,0,248.217,57.18,380.576,0c0,0,5.346-0.947,5.563,7.063v31.143
					C1600.979,1534.848,1600.979,1541.064,1595.416,1542.607z"/>
				<g>
					<path style="fill:none;stroke:#BCBEC0;stroke-width:8.7324;stroke-miterlimit:10;" d="M1466.648,1561.463
						c0,3.961-3.133,7.166-7,7.166h-50.486c-3.852,0-6.992-3.205-6.992-7.166v-36.365c0-3.945,3.141-7.162,6.992-7.162h50.486
						c3.867,0,7,3.217,7,7.162V1561.463z"/>
					
						<line style="fill:none;stroke:#BCBEC0;stroke-width:8.7324;stroke-miterlimit:10;" x1="1402.17" y1="1540.988" x2="1428.902" y2="1540.988"/>
				</g>
			</g>
			<path style="fill:#7AD0E2;" d="M1428.811,786.969c0,0-81.381-31.621-100.535-63.092l-24.035,45.83l85.789,82.281l38.781-63.479"
				/>
			<path style="fill:#D48A50;" d="M1425.586,437.315c15.936-4.516,34.344-7.574,50.816-4.568c16.471,3,25.746,25.074,42.746,13.871
				c6.881-4.543,20.014-14.48,24.324-21.328c6.619-10.531-7.719-30.264-17.5-33.824c-10.965-3.979-9.895-7.592-15.303-18.352
				c-4.592-9.154-5.711-17.605-17.035-20.719c-10.832-2.975-21.227,4.236-31.789,2.672c-18.205-2.689-21.627-22.313-40.74-25.668
				c-21.105-3.707-32.281,31.703-53.16,30.311c-18.092-1.213-29.783-17.004-49.389-13.232
				c-20.225,3.887-25.408,25.555-43.703,31.873c-18.67,6.432-39.275,3.02-44.867,27.211c-4.541,19.686,4.092,33.109-9.879,49.904
				c-15.516,18.67-9.895,38.115-1.621,57.772c14.867,35.361,29.705,70.326,52.754,101.291c6.422,8.639,13.535,16.973,21.303,24.412
				c1.316,1.258,7.93,5.477,8.232,7.205c0-0.043-13.346-75.262,26.422-64.959l6.867-0.392c0,0-13.684-44.127,14.662-65.906
				c-13.443-17.289-2.521-51.799,0.211-56.729C1362.684,433.303,1402.359,443.898,1425.586,437.315z"/>
			<g>
				<g>
					<g>
						<g>
							<g>
								<g>
									<path style="fill:#F7A483;" d="M1317.613,613.482c-3.563,3.004-8.225,4.863-14.141,5.039
										c-16,0.518-29.965-13.828-31.189-32.035c-1.227-18.156,10.725-33.324,26.703-33.82c7.592-0.227,14.74,2.869,20.246,8.119
										c8.051,7.683,8.986,22.478,7.656,32.785C1325.805,601.813,1322.938,608.961,1317.613,613.482z"/>
								</g>
							</g>
						</g>
					</g>
				</g>
				<g>
					<g>
						<path style="fill:#E98B6F;" d="M1306.24,569.303c-1.387-9.517-20.268,0.51-17.105,5.768c1.846,3.014,5.338,5.113,8.098,7.158
							c3.77,2.838,5.678,5.451,6.416,10.176c0.1,0.557,0.275,2.211-0.26,2.635c-2.416,1.842-11.043-7.113-12.93-9
							c-3.711-3.688-4.521-10.307-3.043-15.156c1.578-5.193,4.811-7.768,10.281-7.672c4.34,0.047,8.789,0.135,8.768,5.561
							C1306.465,568.894,1306.324,569.799,1306.24,569.303L1306.24,569.303z"/>
					</g>
					<g>
						<path style="fill:#E98B6F;" d="M1300.529,579.521c1.908-2.131,3.9-0.549,6.043,0.859c1.965,1.291,3.141,3.217,3.725,5.465
							c1.33,4.918,0.965,11.59-1.684,16.059c-2.127,3.613-5.895,5.92-10.105,6.008c-5.824,0.092-7.781-4.965-8.26-9.895
							c-0.113-1.289-0.367-4.43,0.895-5.295c1.344-0.916,2.443,1.182,3.414,2.063c1.354,1.183,3.283,1.549,5,1.623
							c3.346,0.154,6.508-1.697,8.486-4.264c0.338-0.459,0.641-1,0.811-1.539c0.141,3.225,0.014,3.969-0.408,2.188
							c-0.303-0.803-0.697-1.529-1.213-2.213c-1.443-2.168-3.795-3.598-5.387-5.646
							C1301.072,583.996,1299.572,580.592,1300.529,579.521L1300.529,579.521z"/>
					</g>
				</g>
			</g>
			<polygon style="fill:#1A2530;" points="1162.789,1635.309 1378.98,1635.309 1390.727,1129.82 1292.092,783.309 1107.156,892.592 
				1203.064,1321.682 			"/>
			<path style="fill:#2A3C45;" d="M1292.092,783.309l98.635,346.512l-0.416,16.449l-124.232-127.158c0,0-13.057-22.066,4.619-35.127
				l29.354-28.088l-20.924-15.006c0,0-29.357-14.244-25.795-40.926l8.408-100.354L1292.092,783.309z"/>
			<path style="fill:#1A2530;" d="M1653.311,1635.309l-16.5-346.697l36.957-366.957c13.07-66.25-50.873-83.113-50.873-83.113
				l-112.33-52.805l-15.732,334.752l38.451,514.82H1653.311z"/>
			<path style="fill:#7AD0E2;" d="M1497.535,790.471c0,0-7.492-28.947-44.176-53.408l4.803,99.781
				C1458.162,836.844,1478.529,785.809,1497.535,790.471z"/>
			<path style="fill:#3EAEC6;" d="M1500.867,836.844l-3.332-46.373c-11.211-2.75-21.225,12.934-29.379,25.785L1500.867,836.844z"/>
			<g>
				<polygon style="fill:#00A8C1;" points="1420.803,813.496 1417.797,807.897 1397.338,839.285 1414.93,845.553 				"/>
				<path style="fill:#00A8C1;" d="M1468.156,816.256l5.738-8.787c0,0,21.859,18.369-1.105,38.084
					C1472.789,845.553,1472.811,829.313,1468.156,816.256z"/>
				<path style="fill:#00B5C9;" d="M1420.803,813.496c0,0,17.346,15.4,47.354,2.76c6.557,8.359,6.535,18.986,4.633,29.297
					l-15.535,32.057h-21.703l-20.621-32.057C1414.93,845.553,1412.811,838.479,1420.803,813.496z"/>
				<polygon style="fill:#00A8C1;" points="1435.551,877.609 1418.008,1336.301 1454.627,1407.545 1484.516,1336.65 
					1457.254,877.609 				"/>
			</g>
			<path style="fill:#2A3C45;" d="M1510.564,785.736l28.965,13.611l20.908,96.627c0,0,10.492,24.992-4.691,31.539l-27.295,15.916
				l38.465,24.369c0,0,20.254,12.684,7.795,31.355l-77.176,150.684l-2.43-25.771L1510.564,785.736z"/>
			<g>
				<path style="fill:#9F4541;" d="M1418.775,619.158l61.768-4.021c3.254-0.166,4.979,2.188,3.811,5.254
					c0,0-12.016,31.57-32.035,32.811c-20.035,1.25-35.838-28.639-35.838-28.639C1415.113,621.969,1416.219,619.777,1418.775,619.158
					z"/>
				<path style="fill:#D45F5A;" d="M1474.641,637.986c-5.443,7.488-13.006,14.641-22.322,15.215
					c-9.373,0.576-17.797-5.645-24.127-12.459C1439.354,626.82,1461.092,625.828,1474.641,637.986z"/>
				<path style="fill:#FFFFFF;" d="M1418.184,619.451c0.191-0.096,0.359-0.215,0.592-0.293l61.768-4.021
					c0.648-0.018,1.162,0.117,1.684,0.258c-1.592,3.654-3.17,7.313-4.818,10.93c-9.352,2.414-30.822,6.662-53.598,3.412
					C1422.135,626.197,1420.248,622.771,1418.184,619.451z"/>
			</g>
		</g>
	</g>
	<g>
		<g>
			<g>
				<g>
					<path style="fill:#E59375;" d="M710.998,1635.309c20.07-105.398,76.75-328.777,76.75-328.777s-82.504-53.283-97.918-28.271
						c-13.051,21.15-24.854,250.25-22.373,357.049H710.998z"/>
				</g>
				<g>
					<path style="fill:#E59375;" d="M726.203,946.391l-24.908,8.109c0,0-39.43,306.629-6.057,375.115
						c33.359,68.5,71.76-0.338,84.271-8.1c12.492-7.768,92.281-355.033,92.281-355.033L726.203,946.391z"/>
					<path style="fill:#010C18;" d="M672.603,1294.016l15.924-384.129c18.014-94.295,114.572-66.225,114.572-66.225
						c78.275,20.387,74.516,108.107,74.516,108.107l-67.303,367.951c0,0-14.113,56.25-86.547,56.264
						C723.766,1375.984,670.33,1368.77,672.603,1294.016z"/>
				</g>
				<path style="fill:#010C18;" d="M740.963,1635.309c37.744-134.895,62.693-302.658,62.693-302.658
					c9.592-63.881-123.553-66.67-123.553-66.67c-19.519,76.719-22.822,270.867-23.189,369.328H740.963z"/>
			</g>
			<path style="fill:#F7A483;" d="M773.393,1374.283L703.16,945.01c0,0-24.189-64.527,24.205-96.781l184.475-86.711h130.106
				l221.781,131.08l-145.373,481.685H773.393z"/>
			<path style="fill:#00264E;" d="M1165.578,1635.309c-12.373-181.412-47.225-261.025-47.225-261.025H773.393l0.465,261.025
				H1165.578z"/>
			<g>
				<path style="fill:#101B26;" d="M1161.867,1635.309c-15.824-50.736-61.697-87.605-116.133-88.014
					c-55.049-0.41-101.926,36.623-117.996,88.014H1161.867z"/>
				<path style="fill:#101B26;" d="M1056.072,1635.309c-11.162-1.498-21.459-1.395-30.908,0H1056.072z"/>
			</g>
			<g>
				<path style="fill:#101B26;" d="M986.488,1635.309c-16.731-41.451-54.385-72.262-100.797-76.994
					c-54.133-5.531-88.295,27.688-103.414,76.994H986.488z"/>
			</g>
			<g>
				<path style="fill:#F7A483;" d="M1250.592,1635.309h56.6c17.816-108.264,33.119-277.465,25.07-296.232
					c-17.232-40.08-97.119-3.049-97.119-3.049C1253.283,1517.973,1253.121,1578.326,1250.592,1635.309z"/>
				<path style="fill:#F7A483;" d="M1178.854,900.467c85.627-19.488,114.881,59.648,114.881,59.648s42.984,263.418,42.463,376.313
					c-0.352,76.166-93.303,14.824-99.408,1.426c-13.465-29.553-111.133-346.844-111.133-346.844S1120.564,916.467,1178.854,900.467z
					"/>
				<path style="fill:#091420;" d="M1222.318,1342.287L1111.27,982.27c2.506-89.479,90.07-102.838,90.07-102.838
					c82.352-7.887,100.387,62.977,100.387,62.977l39.838,360.396c0,0,13.508,81.021-33.295,82.184
					C1308.27,1384.988,1229.734,1393.51,1222.318,1342.287z"/>
				<path style="fill:#091420;" d="M1314.473,1635.309c16.521-94.092,42.824-266.377,27.092-332.504
					c0,0-88.205-48.131-125.986,17.631c0,0,9.93,208.777,16.262,314.873H1314.473z"/>
			</g>
			<path style="fill:#F7A483;" d="M1042.607,666.701v139.063h-147.07c0,0,36.166-55.123,18.084-139.063H1042.607z"/>
			<path style="fill:#E1876F;" d="M967.99,784.799c-13.252,8.521-41.408,26.672-57.502,16.053
				c-4.303-2.856-6.311-6.609-6.959-10.781c9.451-22.018,22.461-65.951,10.092-123.369h128.986v12.615
				C1026.494,720.018,1005.854,760.383,967.99,784.799z"/>
			<g>
				<path style="fill:#F8A07D;" d="M1046.107,668.645c0,0,25.027-10.867,53.365-72.807c0,0,61.529-73.246,17.916-156.408
					c0,0-25.768-70.32-150.615-50.637C966.773,388.793,955.541,577.26,1046.107,668.645z"/>
				<path style="fill:#F7A483;" d="M892.348,706.26l-8.318-21.799c0,0-22.992-81.131-22.992-81.137
					c-2.873-10.201-3.049-23.85-1.189-34.342c2.014-11.408,3.295-23.324,0.338-35.355c-14.508-58.346,15.395-91.469,15.395-91.469
					c32.949-55.027,114.055-56.852,114.055-56.852c100.408,2.615,111.113,99.475,111.113,99.475
					c17.773,64.174-32.332,119.131-32.438,119.25c-4.006,4.373-1.4,25.578-2.484,31.652c-4.705,25.877-28.994,42.285-50.57,53.715
					c-23.733,12.531-52.463,25.953-79.25,29.031C925.844,719.606,897.121,718.768,892.348,706.26z"/>
			</g>
			<path style="fill:#E98B6F;" d="M911.973,583.701l27.947,8.496c0,0-36.496,4.961-38.68-5.574c0,0,4.021-21.183,8.572-41.31
				C909.813,545.313,907.832,582.435,911.973,583.701z"/>
			<g>
				<path style="fill:#3C2415;" d="M956.541,541.043c-0.254,5.742,2.732,10.537,6.619,10.699c3.895,0.18,7.275-4.338,7.527-10.076
					c0.254-5.75-2.703-10.543-6.598-10.715C960.203,530.771,956.793,535.293,956.541,541.043z"/>
				<path style="fill:#3C2415;" d="M877.551,538.08c-0.281,5.75,2.684,10.543,6.578,10.74c3.908,0.184,7.281-4.313,7.557-10.066
					c0.273-5.75-2.67-10.564-6.564-10.75C881.213,527.828,877.826,532.334,877.551,538.08z"/>
				<path style="fill:#3C2415;" d="M947.73,522.246c-2.5,0.727-3.365-2.648-3.365-2.648c-1.051-3.238-0.283-6.102-0.283-6.102
					c0.859-2.408,2.797-3.281,2.797-3.281c6.471-1.402,19.303-0.711,30.295,1.705c6.1,1.338,16.088,5.053,17.117,10.502
					c0.295,1.627,0.668,4.451-1.17,5.086C993.121,527.508,972.146,522.67,947.73,522.246z"/>
				<path style="fill:#3C2415;" d="M857.277,516.973c7.146-0.398,26.006,2.602,41.563,4.361c2.395,1.014,3.668-2.203,3.69-2.203
					c1.443-3.086,1.057-6.014,1.057-6.014c-0.535-2.498-2.346-3.627-2.346-3.627c-6.238-2.215-23.225-5.889-34.449-4.91
					c-3.354,0.297-8.74,1.945-10.297,5.131C856.494,509.711,855.199,508.947,857.277,516.973z"/>
			</g>
			<path style="fill:#FFFFFF;" d="M1142.227,1362.625c-0.295,14.299,21.422,163.922,12.295,165.83
				c-0.055,0.018-248.225,57.209-380.594,0l-0.535-154.172L703.16,945.01c0,0-24.189-64.527,24.205-96.781l184.475-86.711
				l-12.457,37.396l26.672,75.857l115.891-113.254l221.781,131.08c-12.402,41.064-24.719,82.158-37.113,123.232
				c-22.865,75.705-45.119,151.637-68.654,227.144C1157.959,1242.975,1138.467,1324.861,1142.227,1362.625z"/>
			<polygon style="fill:#D1D3D4;" points="942.06,788.51 943.611,857.629 969.06,832.732 			"/>
			<g>
				<g>
					<path style="fill:#E6E7E8;" d="M909.65,899.953c0,5.455,4.414,9.871,9.865,9.871c5.44,0,9.863-4.416,9.863-9.871
						c0-5.43-4.424-9.844-9.863-9.844C914.064,890.109,909.65,894.523,909.65,899.953z"/>
				</g>
				<g>
					<path style="fill:#E6E7E8;" d="M909.65,1079.045c0,5.43,4.414,9.846,9.865,9.846c5.44,0,9.863-4.416,9.863-9.846
						c0-5.465-4.424-9.869-9.863-9.869C914.064,1069.176,909.65,1073.58,909.65,1079.045z"/>
				</g>
				<g>
					<path style="fill:#E6E7E8;" d="M909.65,1258.094c0,5.465,4.414,9.873,9.865,9.873c5.44,0,9.863-4.408,9.863-9.873
						c0-5.438-4.424-9.848-9.863-9.848C914.064,1248.246,909.65,1252.656,909.65,1258.094z"/>
				</g>
				<g>
					<path style="fill:#E6E7E8;" d="M909.65,1437.178c0,5.438,4.414,9.859,9.865,9.859c5.44,0,9.863-4.422,9.863-9.859
						c0-5.443-4.424-9.869-9.863-9.869C914.064,1427.309,909.65,1431.734,909.65,1437.178z"/>
				</g>
			</g>
			
				<line style="fill:none;stroke:#E6E7E8;stroke-width:5.3377;stroke-miterlimit:10;" x1="942.06" y1="865.502" x2="942.06" y2="1545.107"/>
			<g>
				<path style="fill:#471F08;" d="M775.449,1542.617c0,0,126.772,59.391,386.193-1.299c4.268-1.021,2.471-12.088,2.471-12.088
					l-2.471-24.975c-1.121-8.004-5.6-7.627-5.6-7.627c-0.057,0.018-248.225,57.211-380.594,0c0,0-5.338-0.934-5.564,7.076v31.143
					C769.885,1534.848,769.885,1541.064,775.449,1542.617z"/>
				<g>
					<path style="fill:none;stroke:#BCBEC0;stroke-width:8.7324;stroke-miterlimit:10;" d="M904.227,1561.463
						c0,3.955,3.135,7.17,7.008,7.17h50.482c3.852,0,7-3.215,7-7.17v-36.359c0-3.951-3.148-7.168-7-7.168h-50.482
						c-3.873,0-7.008,3.217-7.008,7.168V1561.463z"/>
					
						<line style="fill:none;stroke:#BCBEC0;stroke-width:8.7324;stroke-miterlimit:10;" x1="968.717" y1="1540.994" x2="941.984" y2="1540.994"/>
				</g>
			</g>
			<path style="fill:#E6E7E8;" d="M942.06,786.957c0,0,81.385-31.609,100.547-63.076l24.035,45.826l-85.785,82.272L942.06,788.51"/>
			<path style="fill:#3C2415;" d="M828.699,366.315c10.68,26.225,34.078,34.088,34.078,34.088
				c-2.84,8.822-21.445,15.461-21.445,15.461c16.508,28.168,53.148,16.883,53.148,16.883c16.473-3.014,34.877,0.051,50.813,4.57
				c23.213,6.574,62.906-4.014,76.652,20.828c2.732,4.943,13.641,39.461,0.211,56.746c28.359,21.785,14.662,65.904,14.662,65.904
				l6.859,0.381c39.781-10.293,26.422,64.934,26.422,64.965c0.311-1.729,6.924-5.938,8.24-7.197
				c7.773-7.455,24.176-34.211,29.316-43.654c27.986-51.32,25.359-53.943,32.852-84.24c5.141-20.68,2.924-76.734-27.189-104.904
				c0,0,9.352-36.912-48.916-59.25c0,0-124.277-31.201-184.535,9.867C879.867,356.762,852.98,370.201,828.699,366.315z"/>
			<path style="fill:#D48A50;" d="M1002.932,359.709"/>
			<g>
				<g>
					<g>
						<g>
							<g>
								<g>
									<path style="fill:#F7A483;" d="M1053.275,613.482c3.551,3,8.213,4.865,14.127,5.043
										c16.014,0.502,29.973-13.84,31.205-32.039c1.225-18.156-10.732-33.311-26.732-33.82c-7.57-0.244-14.711,2.859-20.227,8.127
										c-8.049,7.682-8.984,22.478-7.646,32.781C1045.078,601.813,1047.945,608.961,1053.275,613.482z"/>
								</g>
							</g>
						</g>
					</g>
				</g>
				<g>
					<g>
						<path style="fill:#E98B6F;" d="M1064.643,569.307c1.381-9.521,20.268,0.522,17.098,5.754c-1.844,3.035-5.316,5.125-8.084,7.18
							c-3.795,2.826-5.689,5.445-6.422,10.168c-0.105,0.545-0.275,2.201,0.268,2.627c2.408,1.855,11.035-7.123,12.93-8.983
							c3.711-3.705,4.514-10.307,3.027-15.184c-1.578-5.176-4.795-7.738-10.281-7.646c-4.338,0.035-8.781,0.137-8.775,5.541
							C1064.41,568.894,1064.564,569.793,1064.643,569.307L1064.643,569.307z"/>
					</g>
					<g>
						<path style="fill:#E98B6F;" d="M1070.354,579.504c-1.908-2.104-3.908-0.525-6.049,0.865c-1.959,1.303-3.135,3.236-3.719,5.483
							c-1.338,4.912-0.973,11.578,1.67,16.047c2.133,3.611,5.9,5.93,10.125,6.014c5.824,0.08,7.789-4.969,8.248-9.891
							c0.127-1.297,0.373-4.434-0.889-5.297c-1.344-0.926-2.443,1.17-3.408,2.061c-1.352,1.183-3.289,1.557-5.014,1.631
							c-3.338,0.137-6.508-1.697-8.486-4.262c-0.33-0.461-0.633-1.006-0.803-1.549c-0.141,3.228-0.014,3.969,0.408,2.197
							c0.303-0.82,0.697-1.545,1.219-2.219c1.43-2.172,3.795-3.602,5.381-5.644C1069.818,583.982,1071.305,580.592,1070.354,579.504
							L1070.354,579.504z"/>
					</g>
				</g>
			</g>
			<polygon style="fill:#091420;" points="1208.086,1635.309 1167.811,1321.682 1263.727,892.598 1078.797,783.299 
				980.139,1129.826 991.902,1635.309 			"/>
			<path style="fill:#1F3038;" d="M1078.797,783.299l-98.658,346.527l0.43,16.457l124.236-127.172c0,0,13.063-22.066-4.613-35.129
				l-29.359-28.078l20.93-15.01c0,0,29.352-14.244,25.797-40.941l-8.402-100.338L1078.797,783.299z"/>
			<path style="fill:#091420;" d="M734.055,1288.621l-16.486,346.688h120.029l38.439-514.834l-15.719-334.738l-112.348,52.803
				c0,0-63.938,16.873-50.859,83.115L734.055,1288.621z"/>
			<path style="fill:#E6E7E8;" d="M873.348,790.471c0,0,7.484-28.953,44.176-53.396l-4.803,99.773
				C912.721,836.848,892.353,785.803,873.348,790.471z"/>
			<path style="fill:#D1D3D4;" d="M870.016,836.848l3.332-46.377c11.211-2.75,21.225,12.941,29.373,25.793L870.016,836.848z"/>
			<path style="fill:#1F3038;" d="M860.318,785.736l-28.965,13.625l-20.908,96.605c0,0-10.492,25.012,4.684,31.553l27.289,15.928
				l-38.465,24.344c0,0-20.254,12.691-7.789,31.367l77.184,150.676l2.414-25.758L860.318,785.736z"/>
			<g>
				<path style="fill:#9F4541;" d="M952.111,619.166l-61.779-4.025c-3.246-0.166-4.984,2.189-3.809,5.258
					c0,0,12.006,31.563,32.035,32.809c20.045,1.233,35.842-28.637,35.842-28.637C955.766,621.969,954.66,619.777,952.111,619.166z"
					/>
				<path style="fill:#D45F5A;" d="M896.234,637.988c5.451,7.494,13.014,14.644,22.324,15.219
					c9.377,0.578,17.799-5.654,24.123-12.461C931.525,626.834,909.805,625.828,896.234,637.988z"/>
				<path style="fill:#FFFFFF;" d="M952.703,619.451c-0.213-0.088-0.367-0.223-0.592-0.285l-61.779-4.025
					c-0.641-0.022-1.168,0.109-1.682,0.242c1.598,3.662,3.168,7.324,4.816,10.947c9.359,2.416,30.834,6.666,53.602,3.398
					C948.738,626.207,950.639,622.771,952.703,619.451z"/>
			</g>
			<path style="fill:#3C2415;" d="M1054.438,628.063l-10.76-46.887l-6.859-0.381c0,0-6.938,31.057-44.105,36.553
				c0,0-16.061,2.441-22.912,3.338c-0.895,0.125-10.789-9.658-12.07-10.488c-10.992-7.162-24.205-9.092-37.025-10.096
				c-13.111-1-27.125-2.273-39.69,2.5c-1.654,0.641-17.725,8.775-18.238,6.486c0,0,16.984,75.133,28.949,96.606
				c0,0,5.219,16.531,43.834,12.482c0,0,66.285-5.885,117.766-53.856C1061.846,657.887,1054.438,628.063,1054.438,628.063z
				 M881.383,624.846c1.527-7.807,1.844-12.74,8.535-13.977c13.217-2.426,27.676-0.168,40.834,1.514
				c10.641,1.342,23.844,2.727,28.183,14.363c3.844,10.225,1.035,25.152-4.354,34.496c-9.092,15.768-38.545,23.889-53.467,13.688
				C888.418,666.221,878.523,639.584,881.383,624.846z"/>
			<g>
				<polygon style="fill:#DB4849;" points="950.068,813.496 953.082,807.891 973.533,839.291 955.949,845.559 				"/>
				<path style="fill:#DB4849;" d="M902.721,816.264l-5.732-8.789c0,0-21.867,18.367,1.092,38.084
					C898.08,845.559,898.08,829.313,902.721,816.264z"/>
				<path style="fill:#EC524F;" d="M950.068,813.496c0,0-17.338,15.416-47.348,2.768c-6.557,8.348-6.535,18.975-4.641,29.295
					l15.541,32.057h21.707l20.621-32.057C955.949,845.559,958.068,838.488,950.068,813.496z"/>
				<polygon style="fill:#DB4849;" points="935.328,877.615 952.871,1336.291 916.262,1407.545 886.383,1336.656 913.621,877.615 
									"/>
			</g>
		</g>
	</g>
</g>
</svg>
